<svg
  width="124"
  height="124"
  viewBox="0 0 124 124"
  fill="none"
  xmlns="http://www.w3.org/2000/svg"
>
  <path
    d="M25.0263 85.9422C24.7255 85.9422 24.4233 85.8405 24.1741 85.6326C23.9972 85.4837 19.8129 81.9702 17.0204 78.9463C14.9356 76.6905 14.4623 73.7329 15.6094 70.156C15.7716 69.6488 15.9751 69.149 16.1962 68.661C16.6253 67.713 17.1472 66.7296 17.8401 65.5677C18.8324 63.9032 19.8969 62.302 21.0042 60.8099C23.7996 56.8689 27.4384 48.6168 27.4752 48.5328C28.9127 45.3599 29.9802 42.8815 31.5209 38.8417C31.7819 38.1561 32.5485 37.8126 33.2341 38.075C33.9182 38.336 34.2618 39.1027 34.0008 39.7882C32.4365 43.89 31.3528 46.4067 29.8991 49.615C29.7517 49.9497 26.1203 58.1855 23.1523 62.3683C22.0805 63.8118 21.0661 65.3377 20.121 66.9256C19.4797 68.0005 19.0005 68.8984 18.6157 69.7535C18.4358 70.1501 18.2692 70.5526 18.138 70.964C17.2799 73.637 17.5438 75.6009 18.9695 77.1446C21.6485 80.0447 25.8357 83.564 25.8785 83.5979C26.4402 84.0682 26.5139 84.9057 26.0436 85.4674C25.7826 85.78 25.4052 85.9422 25.0263 85.9422Z"
    fill="#C0C0C0"
  />
  <path
    d="M36.9708 34.2239C36.6995 34.2239 36.4268 34.1413 36.1909 33.9703C35.5982 33.5398 35.4684 32.7097 35.8989 32.117C39.2841 27.4654 44.6332 23.9136 50.9583 22.1178C54.6825 21.0607 58.5675 20.7348 61.6165 21.2199C62.3405 21.3364 62.8329 22.0161 62.7179 22.74C62.6014 23.4654 61.9276 23.9622 61.1978 23.8413C58.5159 23.4152 55.0497 23.716 51.6837 24.6714C46.0102 26.2829 41.0386 29.5663 38.0442 33.6799C37.7861 34.0352 37.3822 34.2239 36.9708 34.2239Z"
    fill="#C0C0C0"
  />
  <path
    d="M82.1425 96.5096C81.9523 96.5096 81.7607 96.4683 81.5778 96.3828C80.9144 96.0702 80.6313 95.2799 80.9439 94.6164C84.6047 86.8509 89.162 74.3216 90.5126 65.1613C90.7116 63.8034 91.0684 60.9652 91.0684 60.1455C91.0684 59.4127 91.6626 58.8185 92.3954 58.8185C93.1281 58.8185 93.7223 59.4127 93.7223 60.1455C93.7223 61.3161 93.2549 64.7588 93.1384 65.5476C91.7481 74.9763 87.0876 87.8122 83.3441 95.7473C83.1171 96.2279 82.6394 96.5096 82.1425 96.5096Z"
    fill="#C0C0C0"
  />
  <path
    d="M30.7968 84.1219C30.4032 84.1219 30.0124 83.948 29.7515 83.6133C29.2989 83.0368 29.4006 82.2023 29.9785 81.7511C31.6416 80.4493 35.7596 76.0586 36.6059 74.0416C36.889 73.3649 37.6674 73.0494 38.3427 73.331C39.018 73.614 39.3364 74.3925 39.0533 75.0678C37.9254 77.7556 33.2752 82.5399 31.6136 83.8403C31.3704 84.0305 31.0828 84.1219 30.7968 84.1219Z"
    fill="#C0C0C0"
  />
  <path
    d="M108.241 63.1969C108.102 63.1969 107.962 63.1748 107.823 63.1291C107.127 62.8991 106.75 62.1472 106.981 61.4528C106.998 61.4012 108.715 56.2054 109.476 52.3323C109.901 50.1487 108.906 48.117 106.52 46.2976C104.061 44.4237 101.062 43.1071 98.1897 41.963C93.4407 39.9445 86.0261 34.8432 85.7121 34.6279C84.5193 33.8244 83.3427 32.9899 82.1677 32.1569C79.4106 30.2018 76.8083 28.3559 73.9052 26.8226C72.0696 25.8554 69.7578 25.0341 67.7232 24.6228C67.0051 24.4783 66.5393 23.778 66.6838 23.0599C66.8297 22.3419 67.5286 21.876 68.2466 22.0205C70.5171 22.479 73.0958 23.3961 75.1423 24.4739C78.2016 26.0883 80.9985 28.0714 83.7025 29.991C84.8599 30.8108 86.0202 31.6349 87.2071 32.434C87.2941 32.4945 94.7264 37.6076 99.1997 39.5081C102.221 40.7097 105.416 42.1192 108.13 44.1863C111.341 46.6338 112.706 49.6268 112.083 52.8409C111.288 56.8822 109.573 62.0676 109.501 62.2858C109.315 62.8446 108.798 63.1969 108.241 63.1969Z"
    fill="#C0C0C0"
  />
  <path
    d="M102.377 64.6761C102.327 64.6761 102.277 64.6746 102.227 64.6687C100.207 64.4402 94.6336 63.0381 91.9473 61.5209C91.3089 61.1597 91.0848 60.3518 91.4445 59.7119C91.8057 59.0749 92.6122 58.8479 93.2536 59.2091C95.4828 60.4682 100.742 61.8291 102.524 62.0311C103.253 62.1136 103.776 62.7697 103.694 63.4996C103.617 64.1748 103.043 64.6761 102.377 64.6761Z"
    fill="#C0C0C0"
  />
  <path
    d="M45.946 93.6822C45.486 93.6822 45.0393 93.4419 44.7931 93.0143L44.656 92.7755C40.1532 84.9303 36.2653 78.1555 35.789 63.4118C35.7654 62.679 36.3405 62.0657 37.0718 62.0421C37.8148 61.9875 38.4179 62.592 38.4415 63.3248C38.897 77.408 42.4547 83.6063 46.9574 91.4544L47.0946 91.6933C47.4587 92.3287 47.2391 93.1397 46.6036 93.5053C46.3972 93.6247 46.1701 93.6822 45.946 93.6822Z"
    fill="#C0C0C0"
  />
  <path
    d="M88.8462 51.2278C88.2948 51.2278 87.7817 50.8828 87.5915 50.3329C85.321 43.7453 80.5145 38.1766 78.704 36.08C78.2248 35.5257 78.2867 34.6868 78.8411 34.2076C79.3954 33.7269 80.2344 33.7889 80.7121 34.3447C82.614 36.5474 87.6623 42.3963 90.1009 49.4659C90.3398 50.1589 89.9712 50.9138 89.2782 51.1541C89.1352 51.2042 88.9892 51.2278 88.8462 51.2278Z"
    fill="#C0C0C0"
  />
  <path
    d="M77.9123 72.8589C75.1847 72.8589 71.6005 71.125 67.055 67.6219C66.474 67.1737 66.3664 66.3407 66.8132 65.7612C67.2599 65.1803 68.0944 65.0727 68.6738 65.5194C75.624 70.8773 78.3118 70.3819 79.1434 69.9204C80.6266 69.0977 80.7003 66.348 80.603 65.3572C80.5322 64.6289 81.063 63.9787 81.7914 63.9065C82.5094 63.8298 83.1684 64.362 83.2436 65.0889C83.2657 65.3042 83.7508 70.3922 80.4393 72.2367C79.6977 72.6495 78.8573 72.8589 77.9123 72.8589Z"
    fill="#C0C0C0"
  />
  <path
    d="M57.139 78.302C55.0557 78.302 53.0343 77.3599 51.1103 75.4889C50.5854 74.9788 50.5736 74.1384 51.0837 73.6135C51.5939 73.0871 52.4343 73.0753 52.9592 73.5869C54.6665 75.2471 56.3163 75.8943 58.0059 75.5611C62.0045 74.7738 65.4855 68.6212 66.4895 66.3183C66.7814 65.6459 67.5688 65.3422 68.2367 65.6312C68.909 65.9246 69.2156 66.706 68.9237 67.3783C68.7542 67.769 64.6864 76.9529 58.519 78.1649C58.0561 78.2578 57.5961 78.302 57.139 78.302Z"
    fill="#C0C0C0"
  />
  <path
    d="M73.7319 51.8721C74.9718 51.7158 75.8417 50.5849 75.6884 49.3479L74.8612 42.9241C74.7064 41.6841 73.5697 40.8113 72.3327 40.9705C71.0957 41.1298 70.2184 42.2621 70.3747 43.4991L71.2033 49.92C71.3655 51.1555 72.489 52.0328 73.7319 51.8721Z"
    fill="#C0C0C0"
  />
  <path
    d="M50.8842 58.0807C52.0415 57.5986 52.5767 56.2731 52.0946 55.1216L49.5911 49.1548C49.109 48.0048 47.7821 47.4622 46.6335 47.9444C45.4835 48.4265 44.9395 49.7534 45.4245 50.9005L47.928 56.8703C48.4087 58.0203 49.7356 58.5658 50.8842 58.0807Z"
    fill="#C0C0C0"
  />
  <path
    d="M60.7856 58.0654C61.222 57.2943 62.0256 56.6869 62.9515 56.2077C64.9448 55.1816 69.051 54.2969 70.428 56.998C70.8895 57.8988 71.037 58.4842 70.7686 59.4396C70.2054 61.4609 68.2135 63.2449 66.0491 63.5796C65.9209 63.6121 65.7838 63.618 65.6555 63.618C63.724 63.7079 61.4329 62.5151 60.6986 60.6839C60.2873 59.643 60.3831 58.7835 60.7856 58.0654Z"
    fill="#C0C0C0"
  />
  <path
    d="M70.4162 89.0972C67.8625 89.0972 65.5905 87.8779 63.7962 85.5307C63.0737 84.5885 62.1125 82.9048 61.4077 81.342C61.1055 80.6741 61.4033 79.8882 62.0712 79.5874C62.7391 79.2881 63.5234 79.583 63.8257 80.2509C64.5496 81.8536 65.4092 83.2749 65.9031 83.9177C67.3553 85.8182 69.1231 86.6571 71.1356 86.3976C74.1168 86.0231 75.6472 83.1083 75.951 77.227C76.0365 75.5801 75.948 74.1706 75.8699 72.9277C75.8389 72.4146 75.808 71.9354 75.7932 71.4857C75.7681 70.753 76.3417 70.1381 77.073 70.1131C77.8337 70.0703 78.4206 70.6616 78.4456 71.3928C78.4604 71.8204 78.4884 72.2745 78.5193 72.7611C78.5975 74.0099 78.6948 75.5653 78.6019 77.3626C78.4633 80.043 78.0431 88.2022 71.4688 89.0294C71.112 89.0751 70.7612 89.0972 70.4162 89.0972Z"
    fill="#C0C0C0"
  />
</svg>